<?xml version="1.0" encoding="UTF-8" standalone="no"?>
<svg
   xmlns:dc="http://purl.org/dc/elements/1.1/"
   xmlns:cc="http://creativecommons.org/ns#"
   xmlns:rdf="http://www.w3.org/1999/02/22-rdf-syntax-ns#"
   xmlns:svg="http://www.w3.org/2000/svg"
   xmlns="http://www.w3.org/2000/svg"
   id="svg4342"
   version="1.1"
   viewBox="0 0 595.2756 841.88974"
   height="297mm"
   width="210mm">
  <defs
     id="defs4336" />
  <metadata
     id="metadata4339">
    <rdf:RDF>
      <cc:Work
         rdf:about="">
        <dc:format>image/svg+xml</dc:format>
        <dc:type
           rdf:resource="http://purl.org/dc/dcmitype/StillImage" />
        <dc:title></dc:title>
      </cc:Work>
    </rdf:RDF>
  </metadata>
  <g
     id="layer1">
    <g
       id="g1535"
       transform="matrix(2.8346457,0,0,2.8346457,20.892864,-400.49265)">
      <rect
         x="31.485415"
         y="149.81348"
         class="st0"
         width="135.46666"
         height="135.46666"
         id="rect4"
         style="fill:#f70000;fill-opacity:1;stroke-width:0.23849763" />
      <path
         id="path1418"
         style="fill:#101518;fill-opacity:1;stroke:none;stroke-width:0.15190332"
         d="m 48.418756,234.71466 -0.62656,-0.007 -16.303797,16.33169 -0.003,0.2957 0.62582,0.007 16.304537,-16.33241 z m -0.0127,1.23316 -15.377,15.4033 0.91739,0.009 14.4502,-14.47492 z m -1.53166,-1.24873 -0.91741,-0.01 -14.449457,14.47418 -0.01,0.93783 z m 1.51284,3.12218 -13.52555,13.54868 0.91777,0.009 12.59839,-12.61993 z m -3.34547,-3.14104 -0.91741,-0.01 -12.598007,12.61957 -0.01,0.93781 z m 3.3263,5.01702 -11.67121,11.69118 0.91523,0.01 10.74657,-10.76496 z m -5.16148,-5.03549 -0.91523,-0.01 -10.745847,10.76424 -0.01,0.93599 z m 5.14268,6.90897 -9.81977,9.83656 0.91776,0.009 8.89222,-8.90744 z m -6.97531,-6.92782 -0.9174,-0.01 -8.892237,8.90745 -0.01,0.93781 z m -1.833,-0.0184 -0.9174,-0.01 -7.040057,7.0521 -0.01,0.93817 z m 8.78912,8.82009 -7.96759,7.98122 0.91741,0.01 7.04078,-7.05282 z m -10.62393,-8.83893 -0.91523,-0.01 -5.188607,5.19749 -0.009,0.93563 z m 10.60512,10.71456 -6.11361,6.12408 0.91524,0.01 5.18861,-5.19749 z m -12.43812,-10.73305 -0.9174,-0.01 -3.334257,3.33997 -0.01,0.93818 z m 12.41896,12.60688 -4.2618,4.2691 0.91775,0.009 3.33464,-3.34034 z m -14.25159,-12.62573 -0.91741,-0.01 -1.482807,1.48536 -0.01,0.93781 z m 14.23241,14.49955 -2.40963,2.41375 0.91741,0.01 1.48282,-1.48537 z m 34.012497,-14.35322 -0.62656,-0.007 -16.303797,16.33169 -0.003,0.2957 0.62582,0.007 16.304537,-16.33241 z m -0.0127,1.23316 -15.377,15.4033 0.91739,0.009 14.4502,-14.47492 z m -1.53166,-1.24873 -0.91741,-0.01 -14.449457,14.47418 -0.01,0.93783 z m 1.51284,3.12218 -13.52555,13.54868 0.91777,0.009 12.59839,-12.61993 z m -3.34547,-3.14104 -0.91741,-0.01 -12.598007,12.61957 -0.01,0.93781 z m 3.3263,5.01702 -11.67121,11.69118 0.91523,0.01 10.74657,-10.76496 z m -5.16148,-5.03549 -0.91523,-0.01 -10.745847,10.76424 -0.01,0.93599 z m 5.14268,6.90897 -9.81977,9.83656 0.91776,0.009 8.89222,-8.90744 z m -6.97531,-6.92782 -0.9174,-0.01 -8.892237,8.90745 -0.01,0.93781 z m -1.833,-0.0184 -0.9174,-0.01 -7.040057,7.0521 -0.01,0.93817 z m 8.78912,8.82009 -7.96759,7.98122 0.91741,0.01 7.04078,-7.05282 z m -10.62393,-8.83893 -0.91523,-0.01 -5.188607,5.19749 -0.009,0.93563 z m 10.60512,10.71456 -6.11361,6.12408 0.91524,0.01 5.18861,-5.19749 z m -12.43812,-10.73305 -0.9174,-0.01 -3.334257,3.33997 -0.01,0.93818 z m 12.41896,12.60688 -4.2618,4.2691 0.91775,0.009 3.33464,-3.34034 z m -14.25159,-12.62573 -0.91741,-0.01 -1.482807,1.48536 -0.01,0.93781 z m 14.23241,14.49955 -2.40963,2.41375 0.91741,0.01 1.48282,-1.48537 z m 34.012497,-14.35322 -0.62656,-0.007 -16.303797,16.33169 -0.003,0.2957 0.62582,0.007 16.304537,-16.33241 z m -0.0127,1.23316 -15.377,15.4033 0.91739,0.009 14.4502,-14.47492 z m -1.53166,-1.24873 -0.91741,-0.01 -14.449457,14.47418 -0.01,0.93783 z m 1.51284,3.12218 -13.52555,13.54868 0.91777,0.009 12.59839,-12.61993 z m -3.34547,-3.14104 -0.91741,-0.01 -12.598007,12.61957 -0.01,0.93781 z m 3.3263,5.01702 -11.67121,11.69118 0.91523,0.01 10.74657,-10.76496 z m -5.16148,-5.03549 -0.91523,-0.01 -10.745847,10.76424 -0.01,0.93599 z m 5.14268,6.90897 -9.81977,9.83656 0.91776,0.009 8.89222,-8.90744 z m -6.97531,-6.92782 -0.9174,-0.01 -8.892237,8.90745 -0.01,0.93781 z m -1.833,-0.0184 -0.9174,-0.01 -7.040057,7.0521 -0.01,0.93817 z m 8.78912,8.82009 -7.96759,7.98122 0.91741,0.01 7.04078,-7.05282 z m -10.62393,-8.83893 -0.91523,-0.01 -5.188607,5.19749 -0.009,0.93563 z m 10.60512,10.71456 -6.11361,6.12408 0.91524,0.01 5.18861,-5.19749 z m -12.43812,-10.73305 -0.9174,-0.01 -3.334257,3.33997 -0.01,0.93818 z m 12.41896,12.60688 -4.2618,4.2691 0.91775,0.009 3.33464,-3.34034 z m -14.25159,-12.62573 -0.91741,-0.01 -1.482807,1.48536 -0.01,0.93781 z m 14.23241,14.49955 -2.40963,2.41375 0.91741,0.01 1.48282,-1.48537 z m 0.14583,-48.21989 -0.62656,-0.007 -16.303797,16.33169 -0.003,0.2957 0.62582,0.007 16.304537,-16.33241 z m -0.0127,1.23316 -15.377,15.4033 0.91739,0.009 14.4502,-14.47492 z m -1.53166,-1.24873 -0.91741,-0.01 -14.449457,14.47418 -0.01,0.93783 z m 1.51284,3.12218 -13.52555,13.54868 0.91777,0.009 12.59839,-12.61993 z m -3.34547,-3.14104 -0.91741,-0.01 -12.598007,12.61957 -0.01,0.93781 z m 3.3263,5.01702 -11.67121,11.69118 0.91523,0.01 10.74657,-10.76496 z m -5.16148,-5.03549 -0.91523,-0.01 -10.745847,10.76424 -0.01,0.93599 z m 5.14268,6.90897 -9.81977,9.83656 0.91776,0.009 8.89222,-8.90744 z m -6.97531,-6.92782 -0.9174,-0.01 -8.892237,8.90745 -0.01,0.93781 z m -1.833,-0.0184 -0.9174,-0.01 -7.040057,7.0521 -0.01,0.93817 z m 8.78912,8.82009 -7.96759,7.98122 0.91741,0.01 7.04078,-7.05282 z m -10.62393,-8.83893 -0.91523,-0.01 -5.188607,5.19749 -0.009,0.93563 z m 10.60512,10.71456 -6.11361,6.12408 0.91524,0.01 5.18861,-5.19749 z m -12.43812,-10.73305 -0.9174,-0.01 -3.334257,3.33997 -0.01,0.93818 z m 12.41896,12.60688 -4.2618,4.2691 0.91775,0.009 3.33464,-3.34034 z m -14.25159,-12.62573 -0.91741,-0.01 -1.482807,1.48536 -0.01,0.93781 z m 14.23241,14.49955 -2.40963,2.41375 0.91741,0.01 1.48282,-1.48537 z m -33.720837,-14.35322 -0.62656,-0.007 -16.303797,16.33169 -0.003,0.2957 0.62582,0.007 16.304537,-16.33241 z m -0.0127,1.23316 -15.377,15.4033 0.91739,0.009 14.4502,-14.47492 z m -1.53166,-1.24873 -0.91741,-0.01 -14.449457,14.47418 -0.01,0.93783 z m 1.51284,3.12218 -13.52555,13.54868 0.91777,0.009 12.59839,-12.61993 z m -3.34547,-3.14104 -0.91741,-0.01 -12.598007,12.61957 -0.01,0.93781 z m 3.3263,5.01702 -11.67121,11.69118 0.91523,0.01 10.74657,-10.76496 z m -5.16148,-5.03549 -0.91523,-0.01 -10.745847,10.76424 -0.01,0.93599 z m 5.14268,6.90897 -9.81977,9.83656 0.91776,0.009 8.89222,-8.90744 z m -6.97531,-6.92782 -0.9174,-0.01 -8.892237,8.90745 -0.01,0.93781 z m -1.833,-0.0184 -0.9174,-0.01 -7.040057,7.0521 -0.01,0.93817 z m 8.78912,8.82009 -7.96759,7.98122 0.91741,0.01 7.04078,-7.05282 z m -10.62393,-8.83893 -0.91523,-0.01 -5.188607,5.19749 -0.009,0.93563 z m 10.60512,10.71456 -6.11361,6.12408 0.91524,0.01 5.18861,-5.19749 z m -12.43812,-10.73305 -0.9174,-0.01 -3.334257,3.33997 -0.01,0.93818 z m 12.41896,12.60688 -4.2618,4.2691 0.91775,0.009 3.33464,-3.34034 z m -14.25159,-12.62573 -0.91741,-0.01 -1.482807,1.48536 -0.01,0.93781 z m 14.23241,14.49955 -2.40963,2.41375 0.91741,0.01 1.48282,-1.48537 z m -33.720837,-14.35322 -0.62656,-0.007 -16.303797,16.33169 -0.003,0.2957 0.62582,0.007 16.304537,-16.33241 z m -0.0127,1.23316 -15.377,15.4033 0.91739,0.009 14.4502,-14.47492 z m -1.53166,-1.24873 -0.91741,-0.01 -14.449457,14.47418 -0.01,0.93783 z m 1.51284,3.12218 -13.52555,13.54868 0.91777,0.009 12.59839,-12.61993 z m -3.34547,-3.14104 -0.91741,-0.01 -12.598007,12.61957 -0.01,0.93781 z m 3.3263,5.01702 -11.67121,11.69118 0.91523,0.01 10.74657,-10.76496 z m -5.16148,-5.03549 -0.91523,-0.01 -10.745847,10.76424 -0.01,0.93599 z m 5.14268,6.90897 -9.81977,9.83656 0.91776,0.009 8.89222,-8.90744 z m -6.97531,-6.92782 -0.9174,-0.01 -8.892237,8.90745 -0.01,0.93781 z m -1.833,-0.0184 -0.9174,-0.01 -7.040057,7.0521 -0.01,0.93817 z m 8.78912,8.82009 -7.96759,7.98122 0.91741,0.01 7.04078,-7.05282 z m -10.62393,-8.83893 -0.91523,-0.01 -5.188607,5.19749 -0.009,0.93563 z m 10.60512,10.71456 -6.11361,6.12408 0.91524,0.01 5.18861,-5.19749 z m -12.43812,-10.73305 -0.9174,-0.01 -3.334257,3.33997 -0.01,0.93818 z m 12.41896,12.60688 -4.2618,4.2691 0.91775,0.009 3.33464,-3.34034 z m -14.25159,-12.62573 -0.91741,-0.01 -1.482807,1.48536 -0.01,0.93781 z m 14.23241,14.49955 -2.40963,2.41375 0.91741,0.01 1.48282,-1.48537 z m 0.14583,-48.21989 -0.62656,-0.007 -16.303797,16.33169 -0.003,0.2957 0.62582,0.007 16.304537,-16.33241 z m -0.0127,1.23316 -15.377,15.4033 0.91739,0.009 14.4502,-14.47492 z m -1.53166,-1.24873 -0.91741,-0.01 -14.449457,14.47418 -0.01,0.93783 z m 1.51284,3.12218 -13.52555,13.54868 0.91777,0.009 12.59839,-12.61993 z m -3.34547,-3.14104 -0.91741,-0.01 -12.598007,12.61957 -0.01,0.93781 z m 3.3263,5.01702 -11.67121,11.69118 0.91523,0.01 10.74657,-10.76496 z m -5.16148,-5.03549 -0.91523,-0.01 -10.745847,10.76424 -0.01,0.93599 z m 5.14268,6.90897 -9.81977,9.83656 0.91776,0.009 8.89222,-8.90744 z m -6.97531,-6.92782 -0.9174,-0.01 -8.892237,8.90745 -0.01,0.93781 z m -1.833,-0.0184 -0.9174,-0.01 -7.040057,7.0521 -0.01,0.93817 z m 8.78912,8.82009 -7.96759,7.98122 0.91741,0.01 7.04078,-7.05282 z m -10.62393,-8.83893 -0.91523,-0.01 -5.188607,5.19749 -0.009,0.93563 z m 10.60512,10.71456 -6.11361,6.12408 0.91524,0.01 5.18861,-5.19749 z m -12.43812,-10.73305 -0.9174,-0.01 -3.334257,3.33997 -0.01,0.93818 z m 12.41896,12.60688 -4.2618,4.2691 0.91775,0.009 3.33464,-3.34034 z m -14.25159,-12.62573 -0.91741,-0.01 -1.482807,1.48536 -0.01,0.93781 z m 14.23241,14.49955 -2.40963,2.41375 0.91741,0.01 1.48282,-1.48537 z m 34.012497,-14.35322 -0.62656,-0.007 -16.303797,16.33169 -0.003,0.2957 0.62582,0.007 16.304537,-16.33241 z m -0.0127,1.23316 -15.377,15.4033 0.91739,0.009 14.4502,-14.47492 z m -1.53166,-1.24873 -0.91741,-0.01 -14.449457,14.47418 -0.01,0.93783 z m 1.51284,3.12218 -13.52555,13.54868 0.91777,0.009 12.59839,-12.61993 z m -3.34547,-3.14104 -0.91741,-0.01 -12.598007,12.61957 -0.01,0.93781 z m 3.3263,5.01702 -11.67121,11.69118 0.91523,0.01 10.74657,-10.76496 z m -5.16148,-5.03549 -0.91523,-0.01 -10.745847,10.76424 -0.01,0.93599 z m 5.14268,6.90897 -9.81977,9.83656 0.91776,0.009 8.89222,-8.90744 z m -6.97531,-6.92782 -0.9174,-0.01 -8.892237,8.90745 -0.01,0.93781 z m -1.833,-0.0184 -0.9174,-0.01 -7.040057,7.0521 -0.01,0.93817 z m 8.78912,8.82009 -7.96759,7.98122 0.91741,0.01 7.04078,-7.05282 z m -10.62393,-8.83893 -0.91523,-0.01 -5.188607,5.19749 -0.009,0.93563 z m 10.60512,10.71456 -6.11361,6.12408 0.91524,0.01 5.18861,-5.19749 z m -12.43812,-10.73305 -0.9174,-0.01 -3.334257,3.33997 -0.01,0.93818 z m 12.41896,12.60688 -4.2618,4.2691 0.91775,0.009 3.33464,-3.34034 z m -14.25159,-12.62573 -0.91741,-0.01 -1.482807,1.48536 -0.01,0.93781 z m 14.23241,14.49955 -2.40963,2.41375 0.91741,0.01 1.48282,-1.48537 z m 34.012497,-14.35322 -0.62656,-0.007 -16.303797,16.33169 -0.003,0.2957 0.62582,0.007 16.304537,-16.33241 z m -0.0127,1.23316 -15.377,15.4033 0.91739,0.009 14.4502,-14.47492 z m -1.53166,-1.24873 -0.91741,-0.01 -14.449457,14.47418 -0.01,0.93783 z m 1.51284,3.12218 -13.52555,13.54868 0.91777,0.009 12.59839,-12.61993 z m -3.34547,-3.14104 -0.91741,-0.01 -12.598007,12.61957 -0.01,0.93781 z m 3.3263,5.01702 -11.67121,11.69118 0.91523,0.01 10.74657,-10.76496 z m -5.16148,-5.03549 -0.91523,-0.01 -10.745847,10.76424 -0.01,0.93599 z m 5.14268,6.90897 -9.81977,9.83656 0.91776,0.009 8.89222,-8.90744 z m -6.97531,-6.92782 -0.9174,-0.01 -8.892237,8.90745 -0.01,0.93781 z m -1.833,-0.0184 -0.9174,-0.01 -7.040057,7.0521 -0.01,0.93817 z m 8.78912,8.82009 -7.96759,7.98122 0.91741,0.01 7.04078,-7.05282 z m -10.62393,-8.83893 -0.91523,-0.01 -5.188607,5.19749 -0.009,0.93563 z m 10.60512,10.71456 -6.11361,6.12408 0.91524,0.01 5.18861,-5.19749 z m -12.43812,-10.73305 -0.9174,-0.01 -3.334257,3.33997 -0.01,0.93818 z m 12.41896,12.60688 -4.2618,4.2691 0.91775,0.009 3.33464,-3.34034 z m -14.25159,-12.62573 -0.91741,-0.01 -1.482807,1.48536 -0.01,0.93781 z m 14.23241,14.49955 -2.40963,2.41375 0.91741,0.01 1.48282,-1.48537 z m 34.0125,-14.35322 -0.62656,-0.007 -16.3038,16.33169 -0.003,0.2957 0.62582,0.007 16.30454,-16.33241 z m -0.0127,1.23316 -15.377,15.4033 0.91739,0.009 14.4502,-14.47492 z m -1.53166,-1.24873 -0.91741,-0.01 -14.44946,14.47418 -0.01,0.93783 z m 1.51284,3.12218 -13.52555,13.54868 0.91777,0.009 12.59839,-12.61993 z m -3.34547,-3.14104 -0.91741,-0.01 -12.59801,12.61957 -0.01,0.93781 z m 3.3263,5.01702 -11.67121,11.69118 0.91523,0.01 10.74657,-10.76496 z m -5.16148,-5.03549 -0.91523,-0.01 -10.74585,10.76424 -0.01,0.93599 z m 5.14268,6.90897 -9.81977,9.83656 0.91776,0.009 8.89222,-8.90744 z m -6.97531,-6.92782 -0.9174,-0.01 -8.89224,8.90745 -0.01,0.93781 z m -1.833,-0.0184 -0.9174,-0.01 -7.04006,7.0521 -0.01,0.93817 z m 8.78912,8.82009 -7.96759,7.98122 0.91741,0.01 7.04078,-7.05282 z m -10.62393,-8.83893 -0.91523,-0.01 -5.18861,5.19749 -0.009,0.93563 z m 10.60512,10.71456 -6.11361,6.12408 0.91524,0.01 5.18861,-5.19749 z m -12.43812,-10.73305 -0.9174,-0.01 -3.33426,3.33997 -0.01,0.93818 z m 12.41896,12.60688 -4.2618,4.2691 0.91775,0.009 3.33464,-3.34034 z m -14.25159,-12.62573 -0.91741,-0.01 -1.48281,1.48536 -0.01,0.93781 z m 14.23241,14.49955 -2.40963,2.41375 0.91741,0.01 1.48282,-1.48537 z m 0.14583,19.51345 -0.62656,-0.007 -16.3038,16.33169 -0.003,0.2957 0.62582,0.007 16.30454,-16.33241 z m -0.0127,1.23316 -15.377,15.4033 0.91739,0.009 14.4502,-14.47492 z m -1.53166,-1.24873 -0.91741,-0.01 -14.44946,14.47418 -0.01,0.93783 z m 1.51284,3.12218 -13.52555,13.54868 0.91777,0.009 12.59839,-12.61993 z m -3.34547,-3.14104 -0.91741,-0.01 -12.59801,12.61957 -0.01,0.93781 z m 3.3263,5.01702 -11.67121,11.69118 0.91523,0.01 10.74657,-10.76496 z m -5.16148,-5.03549 -0.91523,-0.01 -10.74585,10.76424 -0.01,0.93599 z m 5.14268,6.90897 -9.81977,9.83656 0.91776,0.009 8.89222,-8.90744 z m -6.97531,-6.92782 -0.9174,-0.01 -8.89224,8.90745 -0.01,0.93781 z m -1.833,-0.0184 -0.9174,-0.01 -7.04006,7.0521 -0.01,0.93817 z m 8.78912,8.82009 -7.96759,7.98122 0.91741,0.01 7.04078,-7.05282 z m -10.62393,-8.83893 -0.91523,-0.01 -5.18861,5.19749 -0.009,0.93563 z m 10.60512,10.71456 -6.11361,6.12408 0.91524,0.01 5.18861,-5.19749 z m -12.43812,-10.73305 -0.9174,-0.01 -3.33426,3.33997 -0.01,0.93818 z m 12.41896,12.60688 -4.2618,4.2691 0.91775,0.009 3.33464,-3.34034 z m -14.25159,-12.62573 -0.91741,-0.01 -1.48281,1.48536 -0.01,0.93781 z m 14.23241,14.49955 -2.40963,2.41375 0.91741,0.01 1.48282,-1.48537 z m 0.14583,19.51345 -0.62656,-0.007 -16.3038,16.33169 -0.003,0.2957 0.62582,0.007 16.30454,-16.33241 z m -0.0127,1.23316 -15.377,15.4033 0.91739,0.009 14.4502,-14.47492 z m -1.53166,-1.24873 -0.91741,-0.01 -14.44946,14.47418 -0.01,0.93783 z m 1.51284,3.12218 -13.52555,13.54868 0.91777,0.009 12.59839,-12.61993 z m -3.34547,-3.14104 -0.91741,-0.01 -12.59801,12.61957 -0.01,0.93781 z m 3.3263,5.01702 -11.67121,11.69118 0.91523,0.01 10.74657,-10.76496 z m -5.16148,-5.03549 -0.91523,-0.01 -10.74585,10.76424 -0.01,0.93599 z m 5.14268,6.90897 -9.81977,9.83656 0.91776,0.009 8.89222,-8.90744 z m -6.97531,-6.92782 -0.9174,-0.01 -8.89224,8.90745 -0.01,0.93781 z m -1.833,-0.0184 -0.9174,-0.01 -7.04006,7.0521 -0.01,0.93817 z m 8.78912,8.82009 -7.96759,7.98122 0.91741,0.01 7.04078,-7.05282 z m -10.62393,-8.83893 -0.91523,-0.01 -5.18861,5.19749 -0.009,0.93563 z m 10.60512,10.71456 -6.11361,6.12408 0.91524,0.01 5.18861,-5.19749 z m -12.43812,-10.73305 -0.9174,-0.01 -3.33426,3.33997 -0.01,0.93818 z m 12.41896,12.60688 -4.2618,4.2691 0.91775,0.009 3.33464,-3.34034 z m -14.25159,-12.62573 -0.91741,-0.01 -1.48281,1.48536 -0.01,0.93781 z m 14.23241,14.49955 -2.40963,2.41375 0.91741,0.01 1.48282,-1.48537 z m 0.14583,19.51345 -0.62656,-0.007 -16.3038,16.33169 -0.003,0.2957 0.62582,0.007 16.30454,-16.33241 z m -0.0127,1.23316 -15.377,15.4033 0.91739,0.009 14.4502,-14.47492 z m -1.53166,-1.24873 -0.91741,-0.01 -14.44946,14.47418 -0.01,0.93783 z m 1.51284,3.12218 -13.52555,13.54868 0.91777,0.009 12.59839,-12.61993 z m -3.34547,-3.14104 -0.91741,-0.01 -12.59801,12.61957 -0.01,0.93781 z m 3.3263,5.01702 -11.67121,11.69118 0.91523,0.01 10.74657,-10.76496 z m -5.16148,-5.03549 -0.91523,-0.01 -10.74585,10.76424 -0.01,0.93599 z m 5.14268,6.90897 -9.81977,9.83656 0.91776,0.009 8.89222,-8.90744 z m -6.97531,-6.92782 -0.9174,-0.01 -8.89224,8.90745 -0.01,0.93781 z m -1.833,-0.0184 -0.9174,-0.01 -7.04006,7.0521 -0.01,0.93817 z m 8.78912,8.82009 -7.96759,7.98122 0.91741,0.01 7.04078,-7.05282 z m -10.62393,-8.83893 -0.91523,-0.01 -5.18861,5.19749 -0.009,0.93563 z m 10.60512,10.71456 -6.11361,6.12408 0.91524,0.01 5.18861,-5.19749 z m -12.43812,-10.73305 -0.9174,-0.01 -3.33426,3.33997 -0.01,0.93818 z m 12.41896,12.60688 -4.2618,4.2691 0.91775,0.009 3.33464,-3.34034 z m -14.25159,-12.62573 -0.91741,-0.01 -1.48281,1.48536 -0.01,0.93781 z m 14.23241,14.49955 -2.40963,2.41375 0.91741,0.01 1.48282,-1.48537 z m -33.72084,-14.35322 -0.62656,-0.007 -16.303795,16.33169 -0.003,0.2957 0.62582,0.007 16.304535,-16.33241 z m -0.0127,1.23316 -15.377,15.4033 0.91739,0.009 14.4502,-14.47492 z m -1.53166,-1.24873 -0.91741,-0.01 -14.449455,14.47418 -0.01,0.93783 z m 1.51284,3.12218 -13.52555,13.54868 0.91777,0.009 12.59839,-12.61993 z m -3.34547,-3.14104 -0.91741,-0.01 -12.598005,12.61957 -0.01,0.93781 z m 3.3263,5.01702 -11.67121,11.69118 0.91523,0.01 10.74657,-10.76496 z m -5.16148,-5.03549 -0.91523,-0.01 -10.745845,10.76424 -0.01,0.93599 z m 5.14268,6.90897 -9.81977,9.83656 0.91776,0.009 8.89222,-8.90744 z m -6.97531,-6.92782 -0.9174,-0.01 -8.892235,8.90745 -0.01,0.93781 z m -1.833,-0.0184 -0.9174,-0.01 -7.040055,7.0521 -0.01,0.93817 z m 8.78912,8.82009 -7.96759,7.98122 0.91741,0.01 7.04078,-7.05282 z m -10.62393,-8.83893 -0.91523,-0.01 -5.188605,5.19749 -0.009,0.93563 z m 10.60512,10.71456 -6.11361,6.12408 0.91524,0.01 5.18861,-5.19749 z m -12.43812,-10.73305 -0.9174,-0.01 -3.334255,3.33997 -0.01,0.93818 z m 12.41896,12.60688 -4.2618,4.2691 0.91775,0.009 3.33464,-3.34034 z m -14.25159,-12.62573 -0.91741,-0.01 -1.482805,1.48536 -0.01,0.93781 z m 14.23241,14.49955 -2.40963,2.41375 0.91741,0.01 1.48282,-1.48537 z m -33.720832,-14.35322 -0.62656,-0.007 -16.3038,16.33169 -0.003,0.2957 0.62582,0.007 16.30454,-16.33241 z m -0.0127,1.23316 -15.377,15.4033 0.91739,0.009 14.4502,-14.47492 z m -1.53166,-1.24873 -0.91741,-0.01 -14.44946,14.47418 -0.01,0.93783 z m 1.51284,3.12218 -13.52555,13.54868 0.91777,0.009 12.59839,-12.61993 z m -3.34547,-3.14104 -0.91741,-0.01 -12.59801,12.61957 -0.01,0.93781 z m 3.3263,5.01702 -11.67121,11.69118 0.91523,0.01 10.74657,-10.76496 z m -5.16148,-5.03549 -0.91523,-0.01 -10.74585,10.76424 -0.01,0.93599 z m 5.14268,6.90897 -9.81977,9.83656 0.91776,0.009 8.89222,-8.90744 z m -6.97531,-6.92782 -0.9174,-0.01 -8.89224,8.90745 -0.01,0.93781 z m -1.833,-0.0184 -0.9174,-0.01 -7.04006,7.0521 -0.01,0.93817 z m 8.78912,8.82009 -7.96759,7.98122 0.91741,0.01 7.04078,-7.05282 z m -10.62393,-8.83893 -0.91523,-0.01 -5.18861,5.19749 -0.009,0.93563 z m 10.60512,10.71456 -6.11361,6.12408 0.91524,0.01 5.18861,-5.19749 z m -12.43812,-10.73305 -0.9174,-0.01 -3.33426,3.33997 -0.01,0.93818 z m 12.41896,12.60688 -4.2618,4.2691 0.91775,0.009 3.33464,-3.34034 z m -14.25159,-12.62573 -0.91741,-0.01 -1.48281,1.48536 -0.01,0.93781 z m 14.23241,14.49955 -2.40963,2.41375 0.91741,0.01 1.48282,-1.48537 z m -33.720837,-14.35322 -0.62656,-0.007 -16.3038,16.33169 -0.003,0.2957 0.62582,0.007 16.30454,-16.33241 z m -0.0127,1.23316 -15.377,15.4033 0.91739,0.009 14.4502,-14.47492 z m -1.53166,-1.24873 -0.91741,-0.01 -14.44946,14.47418 -0.01,0.93783 z m 1.51284,3.12218 -13.52555,13.54868 0.91777,0.009 12.59839,-12.61993 z m -3.34547,-3.14104 -0.91741,-0.01 -12.59801,12.61957 -0.01,0.93781 z m 3.3263,5.01702 -11.67121,11.69118 0.91523,0.01 10.74657,-10.76496 z m -5.16148,-5.03549 -0.91523,-0.01 -10.74585,10.76424 -0.01,0.93599 z m 5.14268,6.90897 -9.81977,9.83656 0.91776,0.009 8.89222,-8.90744 z m -6.97531,-6.92782 -0.9174,-0.01 -8.89224,8.90745 -0.01,0.93781 z m -1.833,-0.0184 -0.9174,-0.01 -7.04006,7.0521 -0.01,0.93817 z m 8.78912,8.82009 -7.96759,7.98122 0.91741,0.01 7.04078,-7.05282 z m -10.62393,-8.83893 -0.91523,-0.01 -5.18861,5.19749 -0.009,0.93563 z m 10.60512,10.71456 -6.11361,6.12408 0.91524,0.01 5.18861,-5.19749 z m -12.43812,-10.73305 -0.9174,-0.01 -3.33426,3.33997 -0.01,0.93818 z m 12.41896,12.60688 -4.2618,4.2691 0.91775,0.009 3.33464,-3.34034 z m -14.25159,-12.62573 -0.91741,-0.01 -1.48281,1.48536 -0.01,0.93781 z m 14.23241,14.49955 -2.40963,2.41375 0.91741,0.01 1.48282,-1.48537 z m 17.079155,-31.44289 -0.62656,-0.007 -16.3038,16.33169 -0.003,0.2957 0.62582,0.007 16.30454,-16.33241 z m -0.0127,1.23316 -15.377,15.4033 0.91739,0.009 14.4502,-14.47492 z m -1.53166,-1.24873 -0.91741,-0.01 -14.44946,14.47418 -0.01,0.93783 z m 1.51284,3.12218 -13.52555,13.54868 0.91777,0.009 12.59839,-12.61993 z m -3.34547,-3.14104 -0.91741,-0.01 -12.59801,12.61957 -0.01,0.93781 z m 3.3263,5.01702 -11.67121,11.69118 0.91523,0.01 10.74657,-10.76496 z m -5.16148,-5.03549 -0.91523,-0.01 -10.74585,10.76424 -0.01,0.93599 z m 5.14268,6.90897 -9.81977,9.83656 0.91776,0.009 8.89222,-8.90744 z m -6.97531,-6.92782 -0.9174,-0.01 -8.89224,8.90745 -0.01,0.93781 z m -1.833,-0.0184 -0.9174,-0.01 -7.04006,7.0521 -0.01,0.93817 z m 8.78912,8.82009 -7.96759,7.98122 0.91741,0.01 7.04078,-7.05282 z m -10.62393,-8.83893 -0.91523,-0.01 -5.18861,5.19749 -0.009,0.93563 z m 10.60512,10.71456 -6.11361,6.12408 0.91524,0.01 5.18861,-5.19749 z m -12.43812,-10.73305 -0.9174,-0.01 -3.33426,3.33997 -0.01,0.93818 z m 12.41896,12.60688 -4.2618,4.2691 0.91775,0.009 3.33464,-3.34034 z m -14.25159,-12.62573 -0.91741,-0.01 -1.48281,1.48536 -0.01,0.93781 z m 14.23241,14.49955 -2.40963,2.41375 0.91741,0.01 1.48282,-1.48537 z m 34.012497,-14.35322 -0.62656,-0.007 -16.3038,16.33169 -0.003,0.2957 0.62582,0.007 16.30454,-16.33241 z m -0.0127,1.23316 -15.377,15.4033 0.91739,0.009 14.4502,-14.47492 z m -1.53166,-1.24873 -0.91741,-0.01 -14.44946,14.47418 -0.01,0.93783 z m 1.51284,3.12218 -13.52555,13.54868 0.91777,0.009 12.59839,-12.61993 z m -3.34547,-3.14104 -0.91741,-0.01 -12.59801,12.61957 -0.01,0.93781 z m 3.3263,5.01702 -11.67121,11.69118 0.91523,0.01 10.74657,-10.76496 z m -5.16148,-5.03549 -0.91523,-0.01 -10.74585,10.76424 -0.01,0.93599 z m 5.14268,6.90897 -9.81977,9.83656 0.91776,0.009 8.89222,-8.90744 z m -6.97531,-6.92782 -0.9174,-0.01 -8.89224,8.90745 -0.01,0.93781 z m -1.833,-0.0184 -0.9174,-0.01 -7.04006,7.0521 -0.01,0.93817 z m 8.78912,8.82009 -7.96759,7.98122 0.91741,0.01 7.04078,-7.05282 z m -10.62393,-8.83893 -0.91523,-0.01 -5.18861,5.19749 -0.009,0.93563 z m 10.60512,10.71456 -6.11361,6.12408 0.91524,0.01 5.18861,-5.19749 z m -12.43812,-10.73305 -0.9174,-0.01 -3.33426,3.33997 -0.01,0.93818 z m 12.41896,12.60688 -4.2618,4.2691 0.91775,0.009 3.33464,-3.34034 z m -14.25159,-12.62573 -0.91741,-0.01 -1.48281,1.48536 -0.01,0.93781 z m 14.23241,14.49955 -2.40963,2.41375 0.91741,0.01 1.48282,-1.48537 z m 34.012497,-14.35322 -0.62656,-0.007 -16.3038,16.33169 -0.003,0.2957 0.62582,0.007 16.30454,-16.33241 z m -0.0127,1.23316 -15.377,15.4033 0.91739,0.009 14.4502,-14.47492 z m -1.53166,-1.24873 -0.91741,-0.01 -14.44946,14.47418 -0.01,0.93783 z m 1.51284,3.12218 -13.52555,13.54868 0.91777,0.009 12.59839,-12.61993 z m -3.34547,-3.14104 -0.91741,-0.01 -12.59801,12.61957 -0.01,0.93781 z m 3.3263,5.01702 -11.67121,11.69118 0.91523,0.01 10.74657,-10.76496 z m -5.16148,-5.03549 -0.91523,-0.01 -10.74585,10.76424 -0.01,0.93599 z m 5.14268,6.90897 -9.81977,9.83656 0.91776,0.009 8.89222,-8.90744 z m -6.97531,-6.92782 -0.9174,-0.01 -8.89224,8.90745 -0.01,0.93781 z m -1.833,-0.0184 -0.9174,-0.01 -7.04006,7.0521 -0.01,0.93817 z m 8.78912,8.82009 -7.96759,7.98122 0.91741,0.01 7.04078,-7.05282 z m -10.62393,-8.83893 -0.91523,-0.01 -5.18861,5.19749 -0.009,0.93563 z m 10.60512,10.71456 -6.11361,6.12408 0.91524,0.01 5.18861,-5.19749 z m -12.43812,-10.73305 -0.9174,-0.01 -3.33426,3.33997 -0.01,0.93818 z m 12.41896,12.60688 -4.2618,4.2691 0.91775,0.009 3.33464,-3.34034 z m -14.25159,-12.62573 -0.91741,-0.01 -1.48281,1.48536 -0.01,0.93781 z m 14.23241,14.49955 -2.40963,2.41375 0.91741,0.01 1.48282,-1.48537 z m 34.0125,-14.35322 -0.62656,-0.007 -16.3038,16.33169 -0.003,0.2957 0.62582,0.007 16.30454,-16.33241 z m -0.0127,1.23316 -15.377,15.4033 0.91739,0.009 14.4502,-14.47492 z m -1.53166,-1.24873 -0.91741,-0.01 -14.44946,14.47418 -0.01,0.93783 z m 1.51284,3.12218 -13.52555,13.54868 0.91777,0.009 12.59839,-12.61993 z m -3.34547,-3.14104 -0.91741,-0.01 -12.59801,12.61957 -0.01,0.93781 z m 3.3263,5.01702 -11.67121,11.69118 0.91523,0.01 10.74657,-10.76496 z m -5.16148,-5.03549 -0.91523,-0.01 -10.74585,10.76424 -0.01,0.93599 z m 5.14268,6.90897 -9.81977,9.83656 0.91776,0.009 8.89222,-8.90744 z m -6.97531,-6.92782 -0.9174,-0.01 -8.89224,8.90745 -0.01,0.93781 z m -1.833,-0.0184 -0.9174,-0.01 -7.04006,7.0521 -0.01,0.93817 z m 8.78912,8.82009 -7.96759,7.98122 0.91741,0.01 7.04078,-7.05282 z m -10.62393,-8.83893 -0.91523,-0.01 -5.18861,5.19749 -0.009,0.93563 z m 10.60512,10.71456 -6.11361,6.12408 0.91524,0.01 5.18861,-5.19749 z m -12.43812,-10.73305 -0.9174,-0.01 -3.33426,3.33997 -0.01,0.93818 z m 12.41896,12.60688 -4.2618,4.2691 0.91775,0.009 3.33464,-3.34034 z m -14.25159,-12.62573 -0.91741,-0.01 -1.48281,1.48536 -0.01,0.93781 z m 14.23241,14.49955 -2.40963,2.41375 0.91741,0.01 1.48282,-1.48537 z m 0.14583,-48.21989 -0.62656,-0.007 -16.3038,16.33169 -0.003,0.2957 0.62582,0.007 16.30454,-16.33241 z m -0.0127,1.23316 -15.377,15.4033 0.91739,0.009 14.4502,-14.47492 z m -1.53166,-1.24873 -0.91741,-0.01 -14.44946,14.47418 -0.01,0.93783 z m 1.51284,3.12218 -13.52555,13.54868 0.91777,0.009 12.59839,-12.61993 z m -3.34547,-3.14104 -0.91741,-0.01 -12.59801,12.61957 -0.01,0.93781 z m 3.3263,5.01702 -11.67121,11.69118 0.91523,0.01 10.74657,-10.76496 z m -5.16148,-5.03549 -0.91523,-0.01 -10.74585,10.76424 -0.01,0.93599 z m 5.14268,6.90897 -9.81977,9.83656 0.91776,0.009 8.89222,-8.90744 z m -6.97531,-6.92782 -0.9174,-0.01 -8.89224,8.90745 -0.01,0.93781 z m -1.833,-0.0184 -0.9174,-0.01 -7.04006,7.0521 -0.01,0.93817 z m 8.78912,8.82009 -7.96759,7.98122 0.91741,0.01 7.04078,-7.05282 z m -10.62393,-8.83893 -0.91523,-0.01 -5.18861,5.19749 -0.009,0.93563 z m 10.60512,10.71456 -6.11361,6.12408 0.91524,0.01 5.18861,-5.19749 z m -12.43812,-10.73305 -0.9174,-0.01 -3.33426,3.33997 -0.01,0.93818 z m 12.41896,12.60688 -4.2618,4.2691 0.91775,0.009 3.33464,-3.34034 z m -14.25159,-12.62573 -0.91741,-0.01 -1.48281,1.48536 -0.01,0.93781 z m 14.23241,14.49955 -2.40963,2.41375 0.91741,0.01 1.48282,-1.48537 z m -33.72084,-14.35322 -0.62656,-0.007 -16.3038,16.33169 -0.003,0.2957 0.62582,0.007 16.30454,-16.33241 z m -0.0127,1.23316 -15.377,15.4033 0.91739,0.009 14.4502,-14.47492 z m -1.53166,-1.24873 -0.91741,-0.01 -14.44946,14.47418 -0.01,0.93783 z m 1.51284,3.12218 -13.52555,13.54868 0.91777,0.009 12.59839,-12.61993 z m -3.34547,-3.14104 -0.91741,-0.01 -12.59801,12.61957 -0.01,0.93781 z m 3.3263,5.01702 -11.67121,11.69118 0.91523,0.01 10.74657,-10.76496 z m -5.16148,-5.03549 -0.91523,-0.01 -10.74585,10.76424 -0.01,0.93599 z m 5.14268,6.90897 -9.81977,9.83656 0.91776,0.009 8.89222,-8.90744 z m -6.97531,-6.92782 -0.9174,-0.01 -8.89224,8.90745 -0.01,0.93781 z m -1.833,-0.0184 -0.9174,-0.01 -7.04006,7.0521 -0.01,0.93817 z m 8.78912,8.82009 -7.96759,7.98122 0.91741,0.01 7.04078,-7.05282 z m -10.62393,-8.83893 -0.91523,-0.01 -5.18861,5.19749 -0.009,0.93563 z m 10.60512,10.71456 -6.11361,6.12408 0.91524,0.01 5.18861,-5.19749 z m -12.43812,-10.73305 -0.9174,-0.01 -3.33426,3.33997 -0.01,0.93818 z m 12.41896,12.60688 -4.2618,4.2691 0.91775,0.009 3.33464,-3.34034 z m -14.25159,-12.62573 -0.91741,-0.01 -1.48281,1.48536 -0.01,0.93781 z m 14.23241,14.49955 -2.40963,2.41375 0.91741,0.01 1.48282,-1.48537 z m -33.720837,-14.35322 -0.62656,-0.007 -16.3038,16.33169 -0.003,0.2957 0.62582,0.007 16.30454,-16.33241 z m -0.0127,1.23316 -15.377,15.4033 0.91739,0.009 14.4502,-14.47492 z m -1.53166,-1.24873 -0.91741,-0.01 -14.44946,14.47418 -0.01,0.93783 z m 1.51284,3.12218 -13.52555,13.54868 0.91777,0.009 12.59839,-12.61993 z m -3.34547,-3.14104 -0.91741,-0.01 -12.59801,12.61957 -0.01,0.93781 z m 3.3263,5.01702 -11.67121,11.69118 0.91523,0.01 10.74657,-10.76496 z m -5.16148,-5.03549 -0.91523,-0.01 -10.74585,10.76424 -0.01,0.93599 z m 5.14268,6.90897 -9.81977,9.83656 0.91776,0.009 8.89222,-8.90744 z m -6.97531,-6.92782 -0.9174,-0.01 -8.89224,8.90745 -0.01,0.93781 z m -1.833,-0.0184 -0.9174,-0.01 -7.04006,7.0521 -0.01,0.93817 z m 8.78912,8.82009 -7.96759,7.98122 0.91741,0.01 7.04078,-7.05282 z m -10.62393,-8.83893 -0.91523,-0.01 -5.18861,5.19749 -0.009,0.93563 z m 10.60512,10.71456 -6.11361,6.12408 0.91524,0.01 5.18861,-5.19749 z m -12.43812,-10.73305 -0.9174,-0.01 -3.33426,3.33997 -0.01,0.93818 z m 12.41896,12.60688 -4.2618,4.2691 0.91775,0.009 3.33464,-3.34034 z m -14.25159,-12.62573 -0.91741,-0.01 -1.48281,1.48536 -0.01,0.93781 z m 14.23241,14.49955 -2.40963,2.41375 0.91741,0.01 1.48282,-1.48537 z m -33.720837,-14.35322 -0.62656,-0.007 -16.3038,16.33169 -0.003,0.2957 0.62582,0.007 16.30454,-16.33241 z m -0.0127,1.23316 -15.377,15.4033 0.91739,0.009 14.4502,-14.47492 z m -1.53166,-1.24873 -0.91741,-0.01 -14.44946,14.47418 -0.01,0.93783 z m 1.51284,3.12218 -13.52555,13.54868 0.91777,0.009 12.59839,-12.61993 z m -3.34547,-3.14104 -0.91741,-0.01 -12.59801,12.61957 -0.01,0.93781 z m 3.3263,5.01702 -11.67121,11.69118 0.91523,0.01 10.74657,-10.76496 z m -5.16148,-5.03549 -0.91523,-0.01 -10.74585,10.76424 -0.01,0.93599 z m 5.14268,6.90897 -9.81977,9.83656 0.91776,0.009 8.89222,-8.90744 z m -6.97531,-6.92782 -0.9174,-0.01 -8.89224,8.90745 -0.01,0.93781 z m -1.833,-0.0184 -0.9174,-0.01 -7.04006,7.0521 -0.01,0.93817 z m 8.78912,8.82009 -7.96759,7.98122 0.91741,0.01 7.04078,-7.05282 z m -10.62393,-8.83893 -0.91523,-0.01 -5.18861,5.19749 -0.009,0.93563 z m 10.60512,10.71456 -6.11361,6.12408 0.91524,0.01 5.18861,-5.19749 z m -12.43812,-10.73305 -0.9174,-0.01 -3.33426,3.33997 -0.01,0.93818 z m 12.41896,12.60688 -4.2618,4.2691 0.91775,0.009 3.33464,-3.34034 z m -14.25159,-12.62573 -0.91741,-0.01 -1.48281,1.48536 -0.01,0.93781 z m 14.23241,14.49955 -2.40963,2.41375 0.91741,0.01 1.48282,-1.48537 z m 0.14583,-48.21989 -0.62656,-0.007 -16.3038,16.33169 -0.003,0.2957 0.62582,0.007 16.30454,-16.33241 z m -0.0127,1.23316 -15.377,15.4033 0.91739,0.009 14.4502,-14.47492 z m -1.53166,-1.24873 -0.91741,-0.01 -14.44946,14.47418 -0.01,0.93783 z m 1.51284,3.12218 -13.52555,13.54868 0.91777,0.009 12.59839,-12.61993 z m -3.34547,-3.14104 -0.91741,-0.01 -12.59801,12.61957 -0.01,0.93781 z m 3.3263,5.01702 -11.67121,11.69118 0.91523,0.01 10.74657,-10.76496 z m -5.16148,-5.03549 -0.91523,-0.01 -10.74585,10.76424 -0.01,0.93599 z m 5.14268,6.90897 -9.81977,9.83656 0.91776,0.009 8.89222,-8.90744 z m -6.97531,-6.92782 -0.9174,-0.01 -8.89224,8.90745 -0.01,0.93781 z m -1.833,-0.0184 -0.9174,-0.01 -7.04006,7.0521 -0.01,0.93817 z m 8.78912,8.82009 -7.96759,7.98122 0.91741,0.01 7.04078,-7.05282 z m -10.62393,-8.83893 -0.91523,-0.01 -5.18861,5.19749 -0.009,0.93563 z m 10.60512,10.71456 -6.11361,6.12408 0.91524,0.01 5.18861,-5.19749 z m -12.43812,-10.73305 -0.9174,-0.01 -3.33426,3.33997 -0.01,0.93818 z m 12.41896,12.60688 -4.2618,4.2691 0.91775,0.009 3.33464,-3.34034 z m -14.25159,-12.62573 -0.91741,-0.01 -1.48281,1.48536 -0.01,0.93781 z m 14.23241,14.49955 -2.40963,2.41375 0.91741,0.01 1.48282,-1.48537 z m 34.012497,-14.35322 -0.62656,-0.007 -16.3038,16.33169 -0.003,0.2957 0.62582,0.007 16.30454,-16.33241 z m -0.0127,1.23316 -15.377,15.4033 0.91739,0.009 14.4502,-14.47492 z m -1.53166,-1.24873 -0.91741,-0.01 -14.44946,14.47418 -0.01,0.93783 z m 1.51284,3.12218 -13.52555,13.54868 0.91777,0.009 12.59839,-12.61993 z m -3.34547,-3.14104 -0.91741,-0.01 -12.59801,12.61957 -0.01,0.93781 z m 3.3263,5.01702 -11.67121,11.69118 0.91523,0.01 10.74657,-10.76496 z m -5.16148,-5.03549 -0.91523,-0.01 -10.74585,10.76424 -0.01,0.93599 z m 5.14268,6.90897 -9.81977,9.83656 0.91776,0.009 8.89222,-8.90744 z m -6.97531,-6.92782 -0.9174,-0.01 -8.89224,8.90745 -0.01,0.93781 z m -1.833,-0.0184 -0.9174,-0.01 -7.04006,7.0521 -0.01,0.93817 z m 8.78912,8.82009 -7.96759,7.98122 0.91741,0.01 7.04078,-7.05282 z m -10.62393,-8.83893 -0.91523,-0.01 -5.18861,5.19749 -0.009,0.93563 z m 10.60512,10.71456 -6.11361,6.12408 0.91524,0.01 5.18861,-5.19749 z m -12.43812,-10.73305 -0.9174,-0.01 -3.33426,3.33997 -0.01,0.93818 z m 12.41896,12.60688 -4.2618,4.2691 0.91775,0.009 3.33464,-3.34034 z m -14.25159,-12.62573 -0.91741,-0.01 -1.48281,1.48536 -0.01,0.93781 z m 14.23241,14.49955 -2.40963,2.41375 0.91741,0.01 1.48282,-1.48537 z m 34.012497,-14.35322 -0.62656,-0.007 -16.3038,16.33169 -0.003,0.2957 0.62582,0.007 16.30454,-16.33241 z m -0.0127,1.23316 -15.377,15.4033 0.91739,0.009 14.4502,-14.47492 z m -1.53166,-1.24873 -0.91741,-0.01 -14.44946,14.47418 -0.01,0.93783 z m 1.51284,3.12218 -13.52555,13.54868 0.91777,0.009 12.59839,-12.61993 z m -3.34547,-3.14104 -0.91741,-0.01 -12.59801,12.61957 -0.01,0.93781 z m 3.3263,5.01702 -11.67121,11.69118 0.91523,0.01 10.74657,-10.76496 z m -5.16148,-5.03549 -0.91523,-0.01 -10.74585,10.76424 -0.01,0.93599 z m 5.14268,6.90897 -9.81977,9.83656 0.91776,0.009 8.89222,-8.90744 z m -6.97531,-6.92782 -0.9174,-0.01 -8.89224,8.90745 -0.01,0.93781 z m -1.833,-0.0184 -0.9174,-0.01 -7.04006,7.0521 -0.01,0.93817 z m 8.78912,8.82009 -7.96759,7.98122 0.91741,0.01 7.04078,-7.05282 z m -10.62393,-8.83893 -0.91523,-0.01 -5.18861,5.19749 -0.009,0.93563 z m 10.60512,10.71456 -6.11361,6.12408 0.91524,0.01 5.18861,-5.19749 z m -12.43812,-10.73305 -0.9174,-0.01 -3.33426,3.33997 -0.01,0.93818 z m 12.41896,12.60688 -4.2618,4.2691 0.91775,0.009 3.33464,-3.34034 z m -14.25159,-12.62573 -0.91741,-0.01 -1.48281,1.48536 -0.01,0.93781 z m 14.23241,14.49955 -2.40963,2.41375 0.91741,0.01 1.48282,-1.48537 z m 34.0125,-14.35322 -0.62656,-0.007 -16.3038,16.33169 -0.003,0.2957 0.62582,0.007 16.30454,-16.33241 z m -0.0127,1.23316 -15.377,15.4033 0.91739,0.009 14.4502,-14.47492 z m -1.53166,-1.24873 -0.91741,-0.01 -14.44946,14.47418 -0.01,0.93783 z m 1.51284,3.12218 -13.52555,13.54868 0.91777,0.009 12.59839,-12.61993 z m -3.34547,-3.14104 -0.91741,-0.01 -12.59801,12.61957 -0.01,0.93781 z m 3.3263,5.01702 -11.67121,11.69118 0.91523,0.01 10.74657,-10.76496 z m -5.16148,-5.03549 -0.91523,-0.01 -10.74585,10.76424 -0.01,0.93599 z m 5.14268,6.90897 -9.81977,9.83656 0.91776,0.009 8.89222,-8.90744 z m -6.97531,-6.92782 -0.9174,-0.01 -8.89224,8.90745 -0.01,0.93781 z m -1.833,-0.0184 -0.9174,-0.01 -7.04006,7.0521 -0.01,0.93817 z m 8.78912,8.82009 -7.96759,7.98122 0.91741,0.01 7.04078,-7.05282 z m -10.62393,-8.83893 -0.91523,-0.01 -5.18861,5.19749 -0.009,0.93563 z m 10.60512,10.71456 -6.11361,6.12408 0.91524,0.01 5.18861,-5.19749 z m -12.43812,-10.73305 -0.9174,-0.01 -3.33426,3.33997 -0.01,0.93818 z m 12.41896,12.60688 -4.2618,4.2691 0.91775,0.009 3.33464,-3.34034 z m -14.25159,-12.62573 -0.91741,-0.01 -1.48281,1.48536 -0.01,0.93781 z m 14.23241,14.49955 -2.40963,2.41375 0.91741,0.01 1.48282,-1.48537 z m 0.14583,-48.21989 -0.62656,-0.007 -16.3038,16.33169 -0.003,0.2957 0.62582,0.007 16.30454,-16.33241 z m -0.0127,1.23316 -15.377,15.4033 0.91739,0.009 14.4502,-14.47492 z m -1.53166,-1.24873 -0.91741,-0.01 -14.44946,14.47418 -0.01,0.93783 z m 1.51284,3.12218 -13.52555,13.54868 0.91777,0.009 12.59839,-12.61993 z m -3.34547,-3.14104 -0.91741,-0.01 -12.59801,12.61957 -0.01,0.93781 z m 3.3263,5.01702 -11.67121,11.69118 0.91523,0.01 10.74657,-10.76496 z m -5.16148,-5.03549 -0.91523,-0.01 -10.74585,10.76424 -0.01,0.93599 z m 5.14268,6.90897 -9.81977,9.83656 0.91776,0.009 8.89222,-8.90744 z m -6.97531,-6.92782 -0.9174,-0.01 -8.89224,8.90745 -0.01,0.93781 z m -1.833,-0.0184 -0.9174,-0.01 -7.04006,7.0521 -0.01,0.93817 z m 8.78912,8.82009 -7.96759,7.98122 0.91741,0.01 7.04078,-7.05282 z m -10.62393,-8.83893 -0.91523,-0.01 -5.18861,5.19749 -0.009,0.93563 z m 10.60512,10.71456 -6.11361,6.12408 0.91524,0.01 5.18861,-5.19749 z m -12.43812,-10.73305 -0.9174,-0.01 -3.33426,3.33997 -0.01,0.93818 z m 12.41896,12.60688 -4.2618,4.2691 0.91775,0.009 3.33464,-3.34034 z m -14.25159,-12.62573 -0.91741,-0.01 -1.48281,1.48536 -0.01,0.93781 z m 14.23241,14.49955 -2.40963,2.41375 0.91741,0.01 1.48282,-1.48537 z m -33.72084,-14.35322 -0.62656,-0.007 -16.3038,16.33169 -0.003,0.2957 0.62582,0.007 16.30454,-16.33241 z m -0.0127,1.23316 -15.377,15.4033 0.91739,0.009 14.4502,-14.47492 z m -1.53166,-1.24873 -0.91741,-0.01 -14.44946,14.47418 -0.01,0.93783 z m 1.51284,3.12218 -13.52555,13.54868 0.91777,0.009 12.59839,-12.61993 z m -3.34547,-3.14104 -0.91741,-0.01 -12.59801,12.61957 -0.01,0.93781 z m 3.3263,5.01702 -11.67121,11.69118 0.91523,0.01 10.74657,-10.76496 z m -5.16148,-5.03549 -0.91523,-0.01 -10.74585,10.76424 -0.01,0.93599 z m 5.14268,6.90897 -9.81977,9.83656 0.91776,0.009 8.89222,-8.90744 z m -6.97531,-6.92782 -0.9174,-0.01 -8.89224,8.90745 -0.01,0.93781 z m -1.833,-0.0184 -0.9174,-0.01 -7.04006,7.0521 -0.01,0.93817 z m 8.78912,8.82009 -7.96759,7.98122 0.91741,0.01 7.04078,-7.05282 z m -10.62393,-8.83893 -0.91523,-0.01 -5.18861,5.19749 -0.009,0.93563 z m 10.60512,10.71456 -6.11361,6.12408 0.91524,0.01 5.18861,-5.19749 z m -12.43812,-10.73305 -0.9174,-0.01 -3.33426,3.33997 -0.01,0.93818 z m 12.41896,12.60688 -4.2618,4.2691 0.91775,0.009 3.33464,-3.34034 z m -14.25159,-12.62573 -0.91741,-0.01 -1.48281,1.48536 -0.01,0.93781 z m 14.23241,14.49955 -2.40963,2.41375 0.91741,0.01 1.48282,-1.48537 z m -33.720835,-14.35322 -0.626558,-0.007 -16.303805,16.33169 -0.003,0.2957 0.625826,0.007 16.304537,-16.33241 z m -0.01267,1.23316 -15.376999,15.4033 0.91739,0.009 14.450195,-14.47492 z m -1.531663,-1.24873 -0.917409,-0.01 -14.449463,14.47418 -0.0099,0.93783 z m 1.512844,3.12218 -13.525549,13.54868 0.917767,0.009 12.598386,-12.61993 z m -3.345475,-3.14104 -0.91741,-0.01 -12.598011,12.61957 -0.0099,0.93781 z m 3.326298,5.01702 -11.671205,11.69118 0.915231,0.01 10.746569,-10.76496 z m -5.161474,-5.03549 -0.915232,-0.01 -10.745846,10.76424 -0.0099,0.93599 z m 5.142674,6.90897 -9.819764,9.83656 0.917757,0.009 8.892226,-8.90744 z m -6.975306,-6.92782 -0.9174,-0.01 -8.892236,8.90745 -0.0099,0.93781 z m -1.832998,-0.0184 -0.9174,-0.01 -7.040062,7.0521 -0.0099,0.93817 z m 8.789118,8.82009 -7.96759,7.98122 0.91741,0.01 7.040785,-7.05282 z m -10.623928,-8.83893 -0.915232,-0.01 -5.18861,5.19749 -0.0089,0.93563 z m 10.605118,10.71456 -6.113613,6.12408 0.915241,0.01 5.188611,-5.19749 z m -12.438116,-10.73305 -0.9174,-0.01 -3.334268,3.33997 -0.0099,0.93818 z m 12.41896,12.60688 -4.261806,4.2691 0.917756,0.009 3.334635,-3.34034 z m -14.251592,-12.62573 -0.91741,-0.01 -1.482816,1.48536 -0.0099,0.93781 z m 14.232406,14.49955 -2.409632,2.41375 0.91741,0.01 1.482827,-1.48537 z m -67.587536,87.24678 h 16.933332 v 16.93334 H 31.485415 Z m 33.866666,0 h 16.933333 v 16.93334 H 65.352081 Z m 33.866669,0 h 16.93333 v 16.93334 H 99.21875 Z m 33.86667,0 h 16.93333 v 16.93334 h -16.93333 z m 0,-33.86667 h 16.93333 v 16.93334 h -16.93333 z m -33.86667,0 h 16.93333 v 16.93334 H 99.21875 Z m -33.866669,0 h 16.933333 v 16.93334 H 65.352081 Z m -33.866666,0 h 16.933332 v 16.93334 H 31.485415 Z m 0,-33.86666 h 16.933332 v 16.93333 H 31.485415 Z m 33.866666,0 h 16.933333 v 16.93333 H 65.352081 Z m 33.866669,0 h 16.93333 v 16.93333 H 99.21875 Z m 33.86667,0 h 16.93333 v 16.93333 h -16.93333 z m 0,-33.86667 h 16.93333 v 16.93333 h -16.93333 z m -33.866662,0 h 16.933332 v 16.93333 H 99.218758 Z m -33.866669,0 h 16.933332 v 16.93333 H 65.352089 Z m -1e-6,0 -0.626558,-0.007 -16.303805,16.33169 -0.003,0.2957 0.625826,0.007 16.304537,-16.33241 z m -0.01267,1.23316 -15.376999,15.4033 0.91739,0.009 14.450195,-14.47492 z m -1.531663,-1.24873 -0.917409,-0.01 -14.449463,14.47418 -0.0099,0.93783 z m 1.512844,3.12218 -13.525549,13.54868 0.917767,0.009 12.598386,-12.61993 z m -3.345475,-3.14104 -0.91741,-0.01 -12.598011,12.61957 -0.0099,0.93781 z m 3.326298,5.01702 -11.671205,11.69118 0.915231,0.01 10.746569,-10.76496 z m -5.161474,-5.03549 -0.915232,-0.01 -10.745846,10.76424 -0.0099,0.93599 z m 5.142674,6.90897 -9.819764,9.83656 0.917757,0.009 8.892226,-8.90744 z m -6.975306,-6.92782 -0.9174,-0.01 -8.892236,8.90745 -0.0099,0.93781 z m -1.832998,-0.0184 -0.9174,-0.01 -7.040062,7.0521 -0.0099,0.93817 z m 8.789118,8.82009 -7.96759,7.98122 0.91741,0.01 7.040785,-7.05282 z m -10.623928,-8.83893 -0.915232,-0.01 -5.18861,5.19749 -0.0089,0.93563 z m 10.605118,10.71456 -6.113613,6.12408 0.915241,0.01 5.188611,-5.19749 z m -12.438116,-10.73305 -0.9174,-0.01 -3.334268,3.33997 -0.0099,0.93818 z m 12.41896,12.60688 -4.261806,4.2691 0.917756,0.009 3.334635,-3.34034 z m -14.251592,-12.62573 -0.91741,-0.01 -1.482816,1.48536 -0.0099,0.93781 z m 14.232406,14.49955 -2.409632,2.41375 0.91741,0.01 1.482827,-1.48537 z M 31.485422,149.89165 h 16.933333 v 16.93333 H 31.485422 Z" />
    </g>
  </g>
</svg>
